# Blender v3.1.2 OBJ File: ''
# www.blender.org
mtllib artcube.mtl
o Cube
v 1.000000 0.714830 1.000000
v 0.511346 0.967181 0.708312
v -0.708312 0.967181 0.511346
v 0.708312 0.967181 -0.511346
v -0.511346 0.967181 -0.708312
v 0.121601 1.150418 0.202769
v -0.201730 1.294516 0.144640
v 0.201730 1.190068 -0.144640
v -0.121601 1.334167 -0.202769
v 0.434170 1.242292 0.246792
v -0.246792 1.242292 0.434170
v 0.246792 1.242292 -0.434170
v -0.434170 1.242292 -0.246792
v 1.000000 0.714830 -0.824339
v 0.824339 0.714830 -1.000000
v 0.917694 0.786036 -0.862116
v 0.707744 -1.000000 -0.707744
v 0.824339 -0.824339 -1.000000
v 1.000000 -0.824339 -0.824339
v 0.707744 -1.000000 0.707744
v 1.000000 -0.824339 1.000000
v -0.824339 0.714830 -1.000000
v -1.000000 0.714830 -0.824339
v -0.862116 0.786036 -0.917694
v -1.000000 -0.824339 -0.824339
v -0.824339 -0.824339 -1.000000
v -0.707744 -1.000000 -0.707744
v -1.000000 0.714830 0.824339
v -0.824339 0.714830 1.000000
v -0.917694 0.786036 0.862116
v -0.707744 -1.000000 0.707744
v -0.824339 -0.824339 1.000000
v -1.000000 -0.824339 0.824339
v -0.824339 -1.000000 -0.824339
v -0.824339 -1.000000 0.824339
v 0.824339 -1.000000 -0.824339
v 0.824339 -1.000000 0.824339
vt 0.338468 0.536532
vt 0.161532 0.713468
vt 0.161532 0.536532
vt 0.625000 0.021958
vt 0.400609 0.228042
vt 0.400609 0.021958
vt 0.625000 0.750000
vt 0.400609 0.978042
vt 0.400609 0.750000
vt 0.625000 0.521958
vt 0.400609 0.521958
vt 0.625000 0.250000
vt 0.625000 0.500000
vt 0.625000 0.500000
vt 0.831563 0.543437
vt 0.668437 0.706563
vt 0.668437 0.543437
vt 0.625000 0.750000
vt 0.625000 0.750000
vt 0.625000 0.000000
vt 0.625000 0.250000
vt 0.625000 1.000000
vt 0.625000 1.000000
vt 0.625000 0.500000
vt 0.625000 0.500000
vt 0.353042 0.521958
vt 0.353042 0.500000
vt 0.375000 0.521958
vt 0.625000 0.271958
vt 0.625000 0.250000
vt 0.625000 0.250000
vt 0.400609 0.250000
vt 0.375000 0.228042
vt 0.146958 0.728042
vt 0.146958 0.750000
vt 0.125000 0.728042
vt 0.125000 0.521958
vt 0.146958 0.521958
vt 0.625000 0.478042
vt 0.625000 0.000000
vt 0.400609 0.000000
vt 0.400609 0.271958
vt 0.625000 0.228042
vt 0.353042 0.728042
vt 0.400609 0.478042
vt 0.338468 0.713468
vt 0.625000 0.978042
vt 0.831563 0.706563
vt 0.625000 0.000000
vt 0.146958 0.500000
vt 0.375000 0.750000
vt 0.625000 0.000000
vt 0.625000 1.000000
vt 0.875000 0.750000
vt 0.875000 0.500000
vn 0.0000 -1.0000 0.0000
vn -1.0000 0.0000 0.0000
vn 0.0000 0.0000 1.0000
vn 1.0000 0.0000 0.0000
vn 0.1400 0.4781 -0.8671
vn 0.3711 0.9091 0.1894
vn 0.8671 0.4781 0.1400
vn -0.8671 0.4781 -0.1400
vn -0.1400 0.4781 0.8671
vn 0.6467 0.4044 -0.6467
vn 0.5774 -0.5774 -0.5774
vn -0.6467 0.4044 -0.6467
vn -0.5774 -0.5774 -0.5774
vn -0.5774 -0.5774 0.5774
vn -0.7071 -0.7071 0.0000
vn 0.0000 -0.7071 -0.7071
vn 0.7071 0.0000 -0.7071
vn -0.7071 0.0000 0.7071
vn -0.7071 0.0000 -0.7071
vn 0.0000 -0.7071 0.7071
vn 0.7071 -0.7071 0.0000
vn 0.0000 0.0000 -1.0000
vn -0.1350 0.8609 -0.4906
vn 0.3711 0.9091 0.1893
vn 0.4906 0.8609 -0.1350
vn -0.4906 0.8609 0.1350
vn 0.1350 0.8609 0.4906
vn -0.4442 0.8931 -0.0717
vn 0.0717 0.8931 -0.4442
vn 0.6543 0.7563 0.0000
vn -0.0717 0.8931 0.4442
vn -0.6467 0.4044 0.6467
vn -0.4588 0.8885 -0.0000
vn -0.6543 0.7563 0.0000
vn 0.0000 0.8885 -0.4588
vn 0.0000 0.7563 -0.6543
vn 0.4251 0.9025 0.0687
vn -0.0000 0.8885 0.4588
vn 0.0000 0.7563 0.6543
vn -0.1568 0.8066 -0.5699
vn -0.3840 0.9172 0.1057
vn 0.3639 0.9051 0.2199
vn -0.2873 0.9569 0.0429
usemtl BaseMaterial
s off
f 17/1/1 31/2/1 27/3/1
f 28/4/2 25/5/2 33/6/2
f 1/7/3 32/8/3 21/9/3
f 14/10/4 21/9/4 19/11/4
f 5/12/5 12/13/5 4/14/5
f 9/15/6 6/16/6 8/17/6
f 4/14/7 10/18/7 2/19/7
f 3/20/8 13/21/8 5/12/8
f 2/19/9 11/22/9 3/23/9
f 14/10/10 15/24/10 16/25/10
f 36/26/11 18/27/11 19/28/11
f 22/29/12 23/30/12 24/31/12
f 25/5/13 26/32/13 34/33/13
f 35/34/14 32/35/14 33/36/14
f 35/34/15 25/37/15 34/38/15
f 34/38/16 18/27/16 36/26/16
f 19/11/17 15/39/17 14/10/17
f 29/40/18 33/6/18 32/41/18
f 26/42/19 23/43/19 22/29/19
f 37/44/20 32/35/20 35/34/20
f 37/44/21 19/11/21 21/9/21
f 22/29/22 18/45/22 26/42/22
f 31/2/1 34/38/1 27/3/1
f 27/3/1 36/26/1 17/1/1
f 20/46/1 35/34/1 31/2/1
f 17/1/1 37/44/1 20/46/1
f 17/1/1 20/46/1 31/2/1
f 28/4/2 23/43/2 25/5/2
f 1/7/3 29/47/3 32/8/3
f 14/10/4 1/7/4 21/9/4
f 5/12/23 13/21/23 12/13/23
f 9/15/24 7/48/24 6/16/24
f 4/14/25 12/13/25 10/18/25
f 3/20/26 11/49/26 13/21/26
f 2/19/27 10/18/27 11/22/27
f 35/34/15 33/36/15 25/37/15
f 34/38/16 26/50/16 18/27/16
f 19/11/17 18/45/17 15/39/17
f 29/40/18 28/4/18 33/6/18
f 26/42/19 25/5/19 23/43/19
f 37/44/20 21/51/20 32/35/20
f 37/44/21 36/26/21 19/11/21
f 22/29/22 15/39/22 18/45/22
f 31/2/1 35/34/1 34/38/1
f 27/3/1 34/38/1 36/26/1
f 20/46/1 37/44/1 35/34/1
f 17/1/1 36/26/1 37/44/1
usemtl RedMaterial
f 3/20/28 5/12/28 23/43/28
f 5/12/29 4/14/29 15/39/29
f 14/10/30 16/25/30 4/14/30
f 29/47/31 2/19/31 3/23/31
f 28/4/32 29/40/32 30/52/32
f 5/12/33 24/31/33 23/43/33
f 23/43/34 28/4/34 3/20/34
f 28/4/34 30/52/34 3/20/34
f 4/14/35 16/25/35 15/39/35
f 15/39/36 22/29/36 5/12/36
f 22/29/36 24/31/36 5/12/36
f 2/19/37 1/7/37 4/14/37
f 1/7/30 14/10/30 4/14/30
f 3/23/38 30/53/38 29/47/38
f 29/47/39 1/7/39 2/19/39
usemtl YellowMaterial
f 6/16/40 11/54/40 10/18/40
f 8/17/41 10/18/41 12/13/41
f 7/48/41 13/55/41 11/54/41
f 9/15/40 12/13/40 13/55/40
f 6/16/42 7/48/42 11/54/42
f 8/17/43 6/16/43 10/18/43
f 7/48/43 9/15/43 13/55/43
f 9/15/42 8/17/42 12/13/42
